<?xml version="1.0" encoding="utf-8"?>
<svg xmlns="http://www.w3.org/2000/svg" xmlns:xlink="http://www.w3.org/1999/xlink" x="0px" y="0px" viewBox="0 0 622.7 74.7" style="enable-background:new 0 0 622.7 74.7;" xml:space="preserve">
	<path d="M595.4,35.4c-25.9-4-44,18.8-67.9,22.7c-10.2,1.7-22.7,0.7-29.7-7.9c-1.1-1.4-2-2.9-2.6-4.4 c5.6-3.5,9-8.7,6.8-16.4c4.1-0.9,8.5,1.2,9.8,6.1c0.1,0.3,1.2,0,1.2-0.3c-1.3-6.4-6.3-7.9-11.2-6.6c-0.2-0.6-0.5-1.3-0.8-2 c-3.4-7.9-13.2-8.4-20.1-5.1c-6,2.8-12.4,10-4,14.4c0.7,0.4,3.1-0.8,2.7-1c-10.7-6,6.6-19.6,14.9-9.1c1.2,1.6,2.1,3.2,2.6,4.9 c-3.7,2.3-6.6,6.1-6.8,10.1c-0.1,2,0.1,3.7,0.5,5.4c-0.4,0.2-0.7,0.4-1.1,0.6c-7.5,3.5-17.1,3.4-25.5,2.8c1.3-1.6,2.4-3.5,2.9-5.6 c0.1-0.4-0.8-0.2-0.9,0.1c-0.8,2.2-2.2,3.9-3.9,5.4c-0.4,0-0.9-0.1-1.3-0.1c-10.2-0.9-18.3-3.7-27.4-8.4 C407,27.2,379.9,2.5,348.3,4.2c-3.1,0.2-6.1,0.7-8.9,1.7c-2.5-0.4-5.1-0.5-7.7-0.4c-6.2,0.3-17.3,2.6-20.5,8.9 c-3.2-6.3-14.3-8.6-20.5-8.9c-2.6-0.1-5.1,0-7.7,0.4c-2.8-0.9-5.8-1.5-8.9-1.7c-31.6-1.6-58.7,23.1-85.2,36.6 c-9.1,4.7-17.2,7.5-27.4,8.4c-0.4,0-0.9,0.1-1.3,0.1c-1.7-1.5-3.1-3.2-3.9-5.4c-0.1-0.3-1-0.5-0.9-0.1c0.5,2.1,1.6,4,2.9,5.6 c-8.4,0.6-18,0.7-25.5-2.8c-0.4-0.2-0.7-0.4-1.1-0.6c0.4-1.6,0.6-3.4,0.5-5.4c-0.2-4-3.1-7.8-6.8-10.1c0.5-1.7,1.4-3.4,2.6-4.9 c8.3-10.5,25.6,3.1,14.9,9.1c-0.4,0.2,2,1.4,2.7,1c8.4-4.3,2-11.5-4-14.4c-6.9-3.3-16.7-2.8-20.1,5.1c-0.3,0.7-0.5,1.3-0.8,2 c-5-1.3-9.9,0.2-11.2,6.6c-0.1,0.3,1.1,0.6,1.2,0.3c1.3-4.9,5.8-6.9,9.8-6.1c-2.2,7.7,1.2,12.9,6.8,16.4c-0.6,1.5-1.5,3-2.6,4.4 c-6.9,8.6-19.5,9.6-29.7,7.9c-23.9-3.9-42.1-26.7-67.9-22.7c-9.2,1.4-23.8,6.7-23.2,18.4c0.5,9.8,9.1,16.6,18.6,16.8 c7.7,0.1,14.1-8.4,7.8-14.4c-3.2-3-9.5-4.2-9.4,1.5c0,0.4,1.5,0.8,1.5,0.4c1.1-6.2,9.8-0.3,6.6,5.1c-5.1,8.4-17.8,4.3-19.3-4.8 C7.7,44.6,22.3,37.4,34,37c23.2-0.9,39.8,19.4,62,22.9c12,1.9,31,0.7,35.4-12.1c5.1,2.2,11.1,3.3,16.3,3.6 c4.3,0.3,8.6,0.4,12.8,0.2c5.1,4.4,12.9,6.5,19.4,6.2c14.6-0.5,27.7-7.8,39.9-15.1c14.8-8.9,29.3-18.9,44.8-26.5 c6.5-3.2,13.4-6.4,20.6-7.7c4.4,1.9,8.3,5.2,11.1,10.5c5.2,9.7,8,25.3-2.8,32.7c-7.5,5.2-19,5.3-24.2-3.3c-1.4-2.3-2.4-5.2-1.1-7.8 c0.8-1.5,1.7-3.1,3.1-4c1-0.6,6-3.4,5.7,0.9c0,0.5,1.9,0.9,1.9,0.5c0.6-4.3-4.6-4.8-7.8-4c-7,1.7-9.6,8.8-5.5,14.6 c8.1,11.4,27.5,11.8,36.1,1.2c6.4-7.9,4.9-21.9-0.6-30c-3.4-5-7.8-9-12.9-11.8c7.6-0.6,19.1,1,22.1,8.5c-0.2,0.9-0.2,1.9,0,2.9 c0,0.3,0.6,0.1,0.8-0.1c0.2,0.2,0.8,0.3,0.8,0.1c0.2-1,0.1-2,0-2.9c3-7.5,14.6-9.1,22.1-8.5c-5.1,2.7-9.5,6.8-12.9,11.8 c-5.5,8-7,22.1-0.6,30c8.6,10.6,28,10.2,36.1-1.2c4.2-5.8,1.5-12.9-5.5-14.6c-3.2-0.8-8.4-0.3-7.8,4c0.1,0.4,2,0,1.9-0.5 c-0.3-4.3,4.7-1.5,5.7-0.9c1.5,0.9,2.4,2.5,3.1,4c1.3,2.6,0.3,5.5-1.1,7.8c-5.2,8.7-16.7,8.5-24.2,3.3c-10.7-7.4-8-23-2.8-32.7 c2.8-5.3,6.7-8.6,11.1-10.5c7.2,1.2,14.1,4.4,20.6,7.7c15.5,7.6,30,17.6,44.8,26.5c12.3,7.4,25.3,14.6,39.9,15.1 c6.5,0.2,14.3-1.8,19.4-6.2c4.3,0.2,8.6,0.1,12.8-0.2c5.2-0.4,11.2-1.5,16.3-3.6c4.5,12.8,23.5,13.9,35.4,12.1 c22.3-3.5,38.9-23.8,62-22.9c11.7,0.5,26.3,7.6,24.1,21.4c-1.5,9.2-14.2,13.3-19.3,4.8c-3.2-5.4,5.5-11.3,6.6-5.1 c0.1,0.4,1.5,0,1.5-0.4c0.1-5.6-6.2-4.5-9.4-1.5c-6.3,6,0.1,14.5,7.8,14.4c9.5-0.2,18-7,18.6-16.8C619.2,42.1,604.6,36.8,595.4,35.4z M128.3,43.1c-2.7-3.1-3.8-7.1-3-11.2c0.7,0.8,1.4,1.6,1.8,2.7 C128.4,37.4,128.8,40.3,128.3,43.1z M250.8,19.1c-15.5,8.9-30.5,19.2-46.5,27.4c-7.5,3.8-15.7,7.8-24.2,8.2 c-4.9,0.2-11.3-0.6-16.4-3.3c3.3-0.2,6.6-0.6,9.8-1.2c10.7-1.9,20.1-7.2,29.4-12.6c14.7-8.5,28.9-18.3,44.7-24.9 c9.2-3.9,21-7.5,31.2-6C268.8,9,259.2,14.3,250.8,19.1z M442.6,54.7c-8.5-0.4-16.8-4.4-24.2-8.2c-16-8.1-30.9-18.4-46.5-27.4 c-8.5-4.9-18.1-10.1-28-12.5c10.2-1.5,22,2.2,31.2,6c15.7,6.6,29.9,16.4,44.7,24.9c9.3,5.4,18.8,10.7,29.4,12.6 c3.2,0.6,6.5,1,9.8,1.2C453.9,54.1,447.5,55,442.6,54.7z M494.4,43.1c-0.5-2.8-0.2-5.7,1.1-8.5c0.5-1.1,1.1-2,1.8-2.7 C498.2,35.9,497.1,40,494.4,43.1z"/>
</svg>
