<?xml version="1.0" encoding="utf-8"?>
<svg xmlns="http://www.w3.org/2000/svg" xmlns:xlink="http://www.w3.org/1999/xlink" x="0px" y="0px" viewBox="0 0 1118 56" xml:space="preserve">
	<path d="M690.1,39c2.6-4.1,2.4-9.7-1.5-13.7c-9.5-9.7-24.5-7.2-36.7-2.7c-4.4-2-8.9-4.1-13.3-6 c-9.3-4.1-18.8-8.9-28.9-10.8c-6.1-1.1-13.9-1.7-19.1,2.5c-1.5,1.2-2.8,2.8-3.8,4.5c-2-0.6-3.9-1.2-5.9-1.8 c-4.5-1.2-9.1-2.8-13.8-3c-2.7-0.1-5.3,0.3-7.8,1.2c-2.5-0.9-5.1-1.4-7.8-1.2c-4.7,0.2-9.3,1.8-13.8,3c-2,0.5-4,1.1-5.9,1.8 c-1-1.7-2.2-3.3-3.8-4.5c-5.2-4.2-13-3.6-19.1-2.5c-10,1.9-19.6,6.6-28.9,10.8c-4.5,2-8.9,4-13.3,6c-12.1-4.5-27.2-7-36.7,2.7 c-3.8,3.9-4.1,9.6-1.5,13.7l0.9,1.1c1.1,1.3,2.6,2.4,4.5,3.1c1.1,0.4,2.2,0.7,3.4,0.8c2.6,7.7,12.7,7.7,19.2,5.7 c4.5-1.3,8.6-3.7,12.7-6c2.9-1.6,5.7-3.2,8.7-4.7c0.3,0.2,0.6,0.3,0.9,0.5c9.2,4.8,21.3,11.7,32,7.7c3.3-1.2,6.2-3.5,8.3-6.3 c6.8-1,12.8-4.3,14.7-11.8c1.2-4.7,0.8-10.4-1.3-15c1.4-0.4,2.7-0.9,4.1-1.3c6.5-1.9,13.7-4.4,19.9-2.3c-4.4,2.6-7.6,6.9-7.5,12.7 c0.1,7.3,4.3,11.4,10.3,13.2v0v0l0,0v0c5.9-1.8,10.2-5.8,10.3-13.2c0.1-5.8-3.1-10.1-7.5-12.7c6.3-2.1,13.4,0.4,19.9,2.3 c1.4,0.4,2.8,0.8,4.1,1.3c-2.1,4.6-2.5,10.3-1.3,15c1.9,7.5,7.9,10.8,14.7,11.8c2.1,2.9,5,5.1,8.3,6.3c10.7,3.9,22.8-2.9,32-7.7 c0.3-0.2,0.6-0.3,0.9-0.5c2.9,1.5,5.8,3.1,8.7,4.7c4,2.3,8.2,4.7,12.7,6c6.5,1.9,16.7,2,19.2-5.7c1.2-0.2,2.3-0.5,3.4-0.8 C687.9,42.4,690.1,39,690.1,39z M481.5,17.7c9.8-4.4,20-9.6,30.9-10.8c7.2-0.8,13,1.7,16.2,7.1c-2.9,1-5.8,2-8.7,3.2 c-1.9,0.8-3.8,1.6-5.7,2.4c-1.6-1-3.3-1.8-5-2.3c-7.3-2-15.6,2-22,5c-3.3,1.6-6.6,3.2-9.8,4.9c-1.2-0.6-2.4-1.2-3.7-1.7 c-1.5-0.7-3.1-1.4-4.7-2C473.1,21.5,477.3,19.6,481.5,17.7z M511.3,20.8c-7.9,3.5-15.6,7.5-23.3,11.5c-2.9-1.4-5.8-2.8-8.7-4.2 c2.6-1.4,5.1-2.7,7.7-4c4.7-2.4,9.7-4.6,14.9-5.5C505.3,18.1,508.5,19,511.3,20.8z M474.8,28.5c-1.9,1-3.9,2.1-5.8,3.1 c-3.2-1.5-6.6-2.8-10-3.7c2.3-1.1,4.7-2.1,7-3.2C469,25.9,471.9,27.2,474.8,28.5z M437,41.8c-1.8-0.5-3.3-1.4-4.5-2.8 c1.5-0.6,3.1-1.3,4.6-1.9C436.8,38.5,436.8,40.1,437,41.8z M437.7,35.4c-2,0.8-4,1.6-6,2.5c-0.7-1.2-1.2-2.7-1.4-4.6  c-0.7-5.4,4-9.8,8.6-11.6c4.9-2,10.8-1.2,15.8-0.2c3.2,0.6,6.3,1.5,9.3,2.6c-2.5,1.1-5,2.2-7.4,3.4 C449.2,26.1,440.5,28.8,437.7,35.4z M453.6,28.7c-3.4,1.5-6.7,2.9-10.1,4.3c-0.5,0.2-1,0.4-1.6,0.6c0.8-1.3,1.9-2.6,3.3-3.6 C447.5,28.3,450.6,28.1,453.6,28.7z M441,35.6c1.2-0.5,2.5-1,3.7-1.5c3.8-1.6,7.6-3.2,11.4-4.9c1.9,0.5,3.6,1.2,5.2,1.8 c1.7,0.7,3.4,1.4,5,2.2c-1.6,0.9-3.3,1.8-5,2.6c-4.8,2.5-13.5,6.5-20.5,6.5C440.2,40.2,440.2,37.8,441,35.6z M470.7,41.3  c-5.7,3.1-11.1,6.8-17.6,8c-5.5,1-9.5-1.5-11.5-5.1c6.7-0.5,13.8-3.8,19.2-6.4c2.5-1.2,4.9-2.5,7.3-3.7c2.8,1.4,5.5,2.8,8.2,4.3 C474.5,39.3,472.6,40.3,470.7,41.3z M471,32.6c1.9-1,3.9-2.1,5.8-3.1c2.9,1.4,5.8,2.8,8.7,4.1c-2.1,1.1-4.2,2.2-6.3,3.3 C476.5,35.4,473.7,33.9,471,32.6z M510.2,46.1c-5.4,2.2-12.1-0.4-17.1-2.4c-4.2-1.7-8.2-3.8-12.2-6c1.6-0.8,3.3-1.7,4.9-2.5 c0.5-0.3,1-0.5,1.5-0.8c5.6,2.6,11.4,4.8,17.6,6.1c3.5,0.7,7.4,1.1,11.2,0.9C514.6,43.4,512.7,45.1,510.2,46.1z M516.9,39.9 c-5.5,0.3-11.3-1.2-16.3-2.7c-3.7-1.1-7.3-2.5-10.9-4.1c7.6-3.9,15.2-7.8,23-11.3c1.5,1.2,2.8,2.7,3.9,4.3 C519.3,30.4,519.2,35.7,516.9,39.9z M522.3,39c-0.7,0.2-1.4,0.4-2.1,0.5c0.7-1.2,1.2-2.4,1.6-3.7c1.7-5.8-1.5-11.6-6.1-15.3 c4.5-1.9,9-3.7,13.6-5.3c0.6,1.4,1.1,2.9,1.5,4.6C532.1,27.4,530.4,36.4,522.3,39z M562.2,14.1c2.7,2.7,4,6.4,4.2,10.1 c0.3,5.2-2.6,9.1-7,10.7c-4.4-1.7-7.3-5.5-7-10.7c0.2-3.7,1.5-7.5,4.2-10.1c0.9-0.9,1.8-1.6,2.8-2.2 C560.4,12.5,561.3,13.2,562.2,14.1z M652.9,24.7c2.3,1.1,4.7,2.1,7,3.2c-3.5,0.9-6.8,2.2-10,3.7c-1.9-1-3.9-2.1-5.8-3.1 C647,27.2,649.9,25.9,652.9,24.7z M606.6,6.8c10.8,1.2,21,6.5,30.9,10.8c4.2,1.9,8.4,3.8,12.6,5.7c-1.7,0.7-3.2,1.3-4.7,2 c-1.2,0.6-2.4,1.1-3.7,1.7c-3.2-1.7-6.5-3.4-9.8-4.9c-6.4-3-14.8-7-22-5c-1.7,0.5-3.4,1.2-5,2.3c-1.9-0.8-3.8-1.6-5.7-2.4 c-2.9-1.1-5.8-2.2-8.7-3.2C593.5,8.5,599.4,6,606.6,6.8z M639.7,28.1c-2.9,1.4-5.8,2.9-8.7,4.2c-7.7-4-15.4-8-23.3-11.5 c2.7-1.8,6-2.7,9.4-2.2c5.2,0.8,10.2,3.1,14.9,5.5C634.6,25.4,637.2,26.7,639.7,28.1z M597.2,35.8c0.4,1.3,0.9,2.5,1.6,3.7 c-0.7-0.1-1.4-0.3-2.1-0.5c-8.1-2.6-9.7-11.6-8.4-19.1c0.3-1.7,0.8-3.3,1.5-4.6c4.6,1.6,9.1,3.4,13.6,5.3 C598.7,24.2,595.5,30,597.2,35.8z M602.4,26.2c1.1-1.6,2.4-3.1,3.9-4.3c7.8,3.5,15.4,7.4,23,11.3c-3.5,1.6-7.1,3-10.9,4.1 c-5,1.5-10.8,2.9-16.3,2.7C599.8,35.7,599.6,30.4,602.4,26.2z M625.9,43.7c-5,2-11.8,4.6-17.1,2.4c-2.4-1-4.4-2.7-5.8-4.7 c3.8,0.2,7.7-0.2,11.2-0.9c6.1-1.3,11.9-3.5,17.6-6.1c0.5,0.3,1,0.5,1.5,0.8c1.6,0.9,3.3,1.7,4.9,2.5C634.1,39.9,630,42,625.9,43.7 z M639.8,36.8c-2.1-1.1-4.2-2.2-6.3-3.3c2.9-1.4,5.8-2.8,8.7-4.1c1.9,1,3.9,2.1,5.8,3.1C645.2,33.9,642.5,35.4,639.8,36.8z M665.8,49.3c-6.4-1.2-11.9-4.9-17.6-8c-1.9-1-3.8-2-5.6-3c2.7-1.4,5.4-2.9,8.2-4.3c2.4,1.3,4.8,2.5,7.3,3.7 c5.4,2.6,12.5,6,19.2,6.4C675.3,47.8,671.3,50.3,665.8,49.3z M678.1,42.3c-7-0.1-15.6-4-20.5-6.5c-1.7-0.9-3.3-1.7-5-2.6 c1.7-0.8,3.3-1.5,5-2.2c1.5-0.6,3.3-1.3,5.2-1.8c3.8,1.7,7.6,3.3,11.4,4.9c1.2,0.5,2.5,1,3.7,1.5C678.7,37.8,678.7,40.2,678.1,42.3 z M665.4,28.7c3-0.5,6-0.4,8.4,1.4c1.4,1,2.5,2.3,3.3,3.6c-0.5-0.2-1-0.4-1.6-0.6C672.1,31.6,668.7,30.1,665.4,28.7z M681.9,41.8 c0.2-1.7,0.2-3.3-0.2-4.7c1.6,0.6,3.1,1.3,4.6,1.9C685.2,40.4,683.7,41.3,681.9,41.8z M688.6,33.2c-0.2,1.9-0.7,3.4-1.4,4.6 c-2-0.8-4-1.7-6-2.5c-2.7-6.5-11.5-9.3-18.8-8c-2.5-1.1-5-2.2-7.4-3.4c3-1.1,6.1-2,9.3-2.6c5-1,10.9-1.8,15.8,0.2 C684.6,23.4,689.3,27.8,688.6,33.2z"/>
	<path d="M714.9,26.3c-1.4,0-2.7,0.3-3.9,1c-2.4,1.4-3.8,3.9-3.8,6.6c0,2.7,1.5,5.2,3.8,6.6l0.3,0.2 c1.2,0.7,2.6,1,3.9,1l392.2-7.7L714.9,26.3z"/>
	<path d="M403.1,26.3c1.4,0,2.7,0.3,3.9,1c2.4,1.4,3.8,3.9,3.8,6.6c0,2.7-1.5,5.2-3.8,6.6l-0.3,0.2 c-1.2,0.7-2.6,1-3.9,1L10.5,34L403.1,26.3z"/>
</svg>
